<svg id="Layer_1" data-name="Layer 1" xmlns="http://www.w3.org/2000/svg" xmlns:xlink="http://www.w3.org/1999/xlink" viewBox="0 0 185 49.32"><defs><style>.cls-1,.cls-2{fill:#282762;}.cls-1,.cls-3,.cls-4,.cls-5{fill-rule:evenodd;}.cls-3{fill:url(#linear-gradient);}.cls-4{fill:url(#linear-gradient-2);}.cls-5{fill:#27b1f0;}</style><linearGradient id="linear-gradient" x1="35.89" y1="-2.05" x2="-4.87" y2="38.72" gradientUnits="userSpaceOnUse"><stop offset="0" stop-color="#3ac2f3"/><stop offset="1" stop-color="#e84cb4"/></linearGradient><linearGradient id="linear-gradient-2" x1="46.32" y1="12.06" x2="7.38" y2="51" xlink:href="#linear-gradient"/></defs><title>cel-swap-logo</title><path class="cls-1" d="M72.33,17.62a6.33,6.33,0,0,0-6.51,6.48,6.3,6.3,0,0,0,6.51,6.45,7.27,7.27,0,0,0,5.46-2.24V32.7a9.13,9.13,0,0,1-6,2A10.34,10.34,0,0,1,61.43,24.1,10.34,10.34,0,0,1,71.78,13.49a9.13,9.13,0,0,1,6,2v4.39a7.26,7.26,0,0,0-5.46-2.27"/><path class="cls-1" d="M95.81,28.38H85.28c.09,1.16,1,2.42,3.32,2.42a3.63,3.63,0,0,0,3.06-1.52l3.88.41a6.89,6.89,0,0,1-7,5A7.55,7.55,0,0,1,80.81,27a7.32,7.32,0,0,1,7.5-7.59c4.65,0,7.5,3.59,7.5,7.88Zm-10.53-3h6c-.09-1.11-1.21-2.1-3-2.1S85.37,24.23,85.28,25.37Z"/><rect class="cls-2" x="98.37" y="12.59" width="4.54" height="21.66"/><path class="cls-1" d="M111.13,27.79a2.59,2.59,0,0,0,2.78,2.76c1.51,0,2.24-.75,2.24-1.63,0-1.25-1.25-1.83-3.43-3.13-4.46-2.71-5.46-4.33-5.46-6.86,0-3.23,2.67-5.44,6.14-5.44,3.92,0,6.42,3,6.45,6.8h-4.29c0-1.74-.91-2.67-2.16-2.67-1,0-1.85.58-1.85,1.51,0,1.13.8,1.63,2.76,2.76,4,2.33,6.16,4.1,6.16,7.21,0,3.63-3.07,5.61-6.56,5.61a6.8,6.8,0,0,1-7.07-6.92Z"/><polygon class="cls-1" points="148.48 19.36 143.04 34.26 138.37 34.26 135.3 25.93 132.27 34.26 127.57 34.26 122.13 19.36 126.92 19.36 129.92 28.63 132.92 19.36 137.71 19.36 140.69 28.63 143.69 19.36 148.48 19.36"/><path class="cls-1" d="M156.43,19.36a5.21,5.21,0,0,1,4.77,2.57l.26-2.28h4.13V34.41h-4.13l-.26-2.27a5.21,5.21,0,0,1-4.77,2.57c-4.21,0-7.2-3.45-7.2-7.68s3-7.67,7.2-7.67m.76,11.17a3.52,3.52,0,0,0,0-7,3.52,3.52,0,1,0,0,7"/><path class="cls-1" d="M169.07,19.65h4.12l.26,2.27a5.23,5.23,0,0,1,4.8-2.56c4.21,0,7.18,3.43,7.18,7.64s-3,7.64-7.18,7.64a5.25,5.25,0,0,1-4.8-2.56v9h-4.38Zm8.39,10.83a3.5,3.5,0,1,0,0-7,3.5,3.5,0,0,0,0,7Z"/><path class="cls-3" d="M39,11a1.85,1.85,0,0,1-1.57,1.82L28,14.21h-.28a1.83,1.83,0,0,1-.26-3.65L31.35,10a16.65,16.65,0,0,0-7.74-1.9A17,17,0,0,0,11,13.78,16.81,16.81,0,0,0,6.77,27s0,0,0,0L5.67,26.7a3.35,3.35,0,0,0-1-.15,3.31,3.31,0,0,0-3,1.87l-.24.5a22.89,22.89,0,0,1-.19-6.36A22.55,22.55,0,0,1,21,2.74a21.1,21.1,0,0,1,2.63-.16A22.13,22.13,0,0,1,35.35,5.91V1.84a1.84,1.84,0,1,1,3.67,0Z"/><path class="cls-4" d="M24.38,49h0A22.58,22.58,0,0,1,4.6,37.26L3.09,40.37a1.83,1.83,0,0,1-1.66,1,1.9,1.9,0,0,1-.8-.18,1.84,1.84,0,0,1-.85-2.45l2.94-6.1,1-2.15a1.82,1.82,0,0,1,1.65-1,1.7,1.7,0,0,1,.55.08l1.83.58,7.26,2.27A1.84,1.84,0,0,1,14.5,36a1.75,1.75,0,0,1-.55-.08L9.38,34.49a17,17,0,0,0,13,8.88,15.79,15.79,0,0,0,1.94.12,16.83,16.83,0,0,0,12-5.05,1.44,1.44,0,0,1,1-.42,1.41,1.41,0,0,1,.76.23L40.77,40a1,1,0,0,1,.47.76,1.09,1.09,0,0,1-.26.85A22.53,22.53,0,0,1,24.38,49Z"/><path class="cls-5" d="M39.37,17.91a5.45,5.45,0,1,0,5.45-5.44A5.45,5.45,0,0,0,39.37,17.91Zm3.2,0a2.25,2.25,0,1,1,2.25,2.24A2.25,2.25,0,0,1,42.57,17.91Z"/></svg>