<svg id="Layer_1" data-name="Layer 1" xmlns="http://www.w3.org/2000/svg" xmlns:xlink="http://www.w3.org/1999/xlink" viewBox="0 0 50.66 49"><defs><style>.cls-1,.cls-2,.cls-3{fill-rule:evenodd;}.cls-1{fill:url(#linear-gradient);}.cls-2{fill:url(#linear-gradient-2);}.cls-3{fill:#27b1f0;}</style><linearGradient id="linear-gradient" x1="36.3" y1="-2.05" x2="-4.47" y2="38.72" gradientUnits="userSpaceOnUse"><stop offset="0" stop-color="#3ac2f3"/><stop offset="1" stop-color="#e84cb4"/></linearGradient><linearGradient id="linear-gradient-2" x1="46.72" y1="12.06" x2="7.78" y2="51" xlink:href="#linear-gradient"/></defs><title>cel-swap-logo-symbol</title><path class="cls-1" d="M39.43,11a1.85,1.85,0,0,1-1.58,1.82l-9.41,1.39h-.27a1.83,1.83,0,0,1-.27-3.65L31.75,10A16.65,16.65,0,0,0,24,8.1a17,17,0,0,0-12.64,5.68A16.74,16.74,0,0,0,7.18,27v0L6.07,26.7a3.32,3.32,0,0,0-4,1.72l-.24.5a22.89,22.89,0,0,1-.18-6.36A22.53,22.53,0,0,1,21.38,2.74,21.33,21.33,0,0,1,24,2.58,22.11,22.11,0,0,1,35.75,5.91V1.84a1.84,1.84,0,1,1,3.68,0Z"/><path class="cls-2" d="M24.79,49h0A22.55,22.55,0,0,1,8,41.52a22.92,22.92,0,0,1-3-4.26L3.49,40.37a1.82,1.82,0,0,1-1.65,1,1.87,1.87,0,0,1-.8-.18,1.83,1.83,0,0,1-.86-2.45l2.94-6.1,1-2.15a1.83,1.83,0,0,1,1.66-1,1.79,1.79,0,0,1,.55.08l1.82.58,7.27,2.27A1.84,1.84,0,0,1,14.9,36a1.79,1.79,0,0,1-.55-.08L9.79,34.49a17,17,0,0,0,13,8.88,15.63,15.63,0,0,0,1.93.12,16.79,16.79,0,0,0,12-5.05,1.46,1.46,0,0,1,1-.42,1.38,1.38,0,0,1,.76.23L41.18,40a1.07,1.07,0,0,1,.2,1.61A22.52,22.52,0,0,1,24.79,49Z"/><path class="cls-3" d="M39.78,17.91a5.44,5.44,0,1,0,5.44-5.44A5.44,5.44,0,0,0,39.78,17.91Zm3.2,0a2.24,2.24,0,1,1,2.24,2.24A2.24,2.24,0,0,1,43,17.91Z"/></svg>